<?xml version="1.0" standalone="no"?>
<!DOCTYPE svg PUBLIC "-//W3C//DTD SVG 20010904//EN"
 "http://www.w3.org/TR/2001/REC-SVG-20010904/DTD/svg10.dtd">
<svg version="1.0" xmlns="http://www.w3.org/2000/svg"
 width="512.000000pt" height="512.000000pt" viewBox="0 0 512.000000 512.000000"
 preserveAspectRatio="xMidYMid meet">

<g transform="translate(0.000000,512.000000) scale(0.100000,-0.100000)"
fill="#ffffff" stroke="none">
<path d="M2567 5106 c-78 -28 -140 -89 -165 -165 -9 -24 -12 -179 -12 -522 l0
-489 -972 0 c-535 -1 -1004 -5 -1042 -10 -132 -17 -251 -95 -319 -211 -59
-101 -58 -56 -55 -1345 l3 -1179 24 -58 c44 -111 143 -207 258 -250 57 -21 71
-22 571 -25 l512 -3 -2 -167 -3 -167 -165 -5 c-187 -6 -216 -15 -282 -88 -44
-48 -62 -100 -61 -172 1 -93 53 -178 137 -223 l41 -22 1950 0 c1883 0 1951 1
1985 19 49 26 98 74 123 121 l22 40 0 2375 0 2375 -22 41 c-31 58 -104 119
-158 133 -70 18 -2318 15 -2368 -3z m2354 -185 l29 -29 0 -2332 0 -2332 -29
-29 -29 -29 -914 0 -913 0 0 83 c0 72 -3 88 -28 129 -31 53 -79 94 -134 114
-25 9 -89 13 -190 14 l-153 0 0 170 0 170 473 0 c259 0 498 4 531 10 185 30
329 178 356 365 13 94 13 2236 0 2330 -6 39 -23 97 -40 131 -60 123 -186 214
-325 234 -38 5 -278 10 -532 10 l-463 0 0 481 0 481 29 29 29 29 1137 0 1137
0 29 -29z m-1316 -1190 c46 -21 111 -88 131 -137 12 -28 14 -206 14 -1089 l0
-1055 -1790 0 -1790 0 0 1038 c0 1139 -2 1099 60 1174 16 20 53 48 82 62 l52
26 1600 0 c1527 0 1603 -1 1641 -19z m145 -2483 c-1 -75 -67 -164 -150 -202
l-45 -21 -1595 0 -1595 0 -48 24 c-77 38 -147 139 -147 213 0 17 65 18 1790
18 l1790 0 0 -32z m-1360 -568 l0 -170 -425 0 -425 0 0 170 0 170 425 0 425 0
0 -170z m485 -365 c27 -27 33 -79 12 -106 -30 -39 -29 -39 -931 -39 l-875 0
-26 23 c-39 33 -39 91 -1 123 l27 24 885 0 885 0 24 -25z"/>
<path d="M2840 4683 c-37 -14 -74 -49 -91 -87 -15 -32 -19 -66 -19 -158 0 -64
5 -129 11 -145 15 -42 68 -92 109 -103 22 -6 366 -10 908 -10 763 0 877 2 909
15 89 38 112 88 113 246 0 102 -3 121 -23 160 -15 27 -38 52 -63 66 l-39 23
-900 -1 c-495 0 -907 -3 -915 -6z m1770 -248 l0 -85 -855 0 -855 0 0 85 0 85
855 0 855 0 0 -85z"/>
<path d="M4391 3918 c-141 -24 -233 -163 -202 -302 33 -146 176 -232 317 -191
47 13 69 27 111 70 55 57 73 99 73 174 0 63 -18 116 -57 160 -64 75 -147 106
-242 89z m108 -194 c56 -72 -12 -164 -95 -129 -85 35 -59 155 35 155 31 0 44
-6 60 -26z"/>
<path d="M4349 3226 c-56 -20 -103 -61 -135 -118 -24 -45 -29 -64 -29 -123 1
-78 16 -118 69 -173 156 -166 436 -55 436 172 0 145 -109 256 -250 255 -30 0
-71 -6 -91 -13z m146 -181 c75 -74 -31 -192 -109 -122 -40 34 -43 77 -11 115
34 41 84 44 120 7z"/>
<path d="M3266 649 c-24 -28 -26 -37 -26 -132 0 -62 5 -112 13 -127 27 -54 94
-63 137 -20 18 18 20 34 20 140 0 115 -1 122 -25 145 -36 37 -86 34 -119 -6z"/>
<path d="M3609 654 c-21 -23 -24 -36 -27 -123 -3 -71 0 -107 12 -134 24 -60
91 -72 136 -27 18 18 20 34 20 144 0 123 0 125 -26 145 -37 29 -85 27 -115 -5z"/>
<path d="M3956 659 c-26 -20 -26 -23 -26 -143 0 -135 9 -160 58 -171 44 -9 81
10 98 52 12 27 15 63 12 134 -3 87 -6 100 -27 123 -30 32 -78 34 -115 5z"/>
<path d="M4295 655 c-24 -23 -25 -30 -25 -145 0 -106 2 -122 20 -140 43 -43
110 -34 137 20 8 15 13 65 13 127 0 95 -2 104 -26 132 -33 40 -83 43 -119 6z"/>
<path d="M4635 655 c-24 -23 -25 -30 -25 -142 1 -123 5 -139 47 -161 35 -19
63 -14 94 17 28 29 29 32 29 136 0 137 -18 174 -88 175 -22 0 -41 -8 -57 -25z"/>
<path d="M538 3393 c-125 -126 -189 -198 -194 -217 -14 -57 46 -115 104 -101
17 4 100 79 215 194 181 181 187 188 187 227 0 54 -31 84 -85 84 -38 0 -48 -8
-227 -187z"/>
<path d="M792 3127 c-496 -496 -482 -479 -423 -538 33 -32 59 -36 99 -15 41
22 880 867 891 898 20 52 -21 108 -78 108 -34 0 -60 -24 -489 -453z"/>
</g>
</svg>
